<?xml version="1.0" encoding="UTF-8"?>
<svg id="Layer_1" data-name="Layer 1" xmlns="http://www.w3.org/2000/svg" xmlns:xlink="http://www.w3.org/1999/xlink" viewBox="0 0 611 793">
  <defs>
    <style>
      .cls-1 {
        fill: url(#linear-gradient-2);
      }

      .cls-2 {
        fill: url(#linear-gradient-6);
      }

      .cls-3 {
        fill: #727bbb;
        opacity: .17;
      }

      .cls-3, .cls-4 {
        stroke: #6f75b7;
        stroke-miterlimit: 10;
      }

      .cls-5 {
        fill: #11121b;
      }

      .cls-6 {
        fill: url(#linear-gradient-10);
      }

      .cls-7 {
        stroke: url(#linear-gradient-11);
        stroke-linecap: round;
        stroke-linejoin: round;
        stroke-width: 38px;
      }

      .cls-7, .cls-8, .cls-4 {
        fill: none;
      }

      .cls-9 {
        fill: url(#linear-gradient-5);
      }

      .cls-10 {
        fill: url(#linear-gradient-7);
      }

      .cls-11 {
        fill: url(#linear-gradient-9);
      }

      .cls-4 {
        stroke-width: 2px;
      }

      .cls-12 {
        fill: url(#linear-gradient-3);
      }

      .cls-13 {
        fill: url(#linear-gradient);
      }

      .cls-14 {
        fill: url(#linear-gradient-4);
      }

      .cls-15 {
        fill: url(#linear-gradient-8);
      }
    </style>
    <linearGradient id="linear-gradient" x1="172.13" y1="362.5" x2="444.91" y2="367.44" gradientUnits="userSpaceOnUse">
      <stop offset="0" stop-color="#c7c8ca" stop-opacity="0"/>
      <stop offset="1" stop-color="#5b62ac"/>
    </linearGradient>
    <linearGradient id="linear-gradient-2" x1="168.98" y1="222.95" x2="443.13" y2="222.95" gradientUnits="userSpaceOnUse">
      <stop offset="0" stop-color="#f05224"/>
      <stop offset="1" stop-color="#231f20" stop-opacity="0"/>
    </linearGradient>
    <linearGradient id="linear-gradient-3" x1="58.22" y1="586.22" x2="99.17" y2="586.22" gradientUnits="userSpaceOnUse">
      <stop offset="0" stop-color="#e0592a"/>
      <stop offset="1" stop-color="#5b62ac"/>
    </linearGradient>
    <linearGradient id="linear-gradient-4" x1="121.49" y1="586.08" x2="165.15" y2="586.08" xlink:href="#linear-gradient-3"/>
    <linearGradient id="linear-gradient-5" x1="187.47" y1="586.11" x2="239.5" y2="586.11" xlink:href="#linear-gradient-3"/>
    <linearGradient id="linear-gradient-6" x1="261.83" y1="586.11" x2="313.85" y2="586.11" xlink:href="#linear-gradient-3"/>
    <linearGradient id="linear-gradient-7" x1="336.17" y1="586.11" x2="339.44" y2="586.11" xlink:href="#linear-gradient-3"/>
    <linearGradient id="linear-gradient-8" x1="361.75" y1="586.11" x2="413.77" y2="586.11" xlink:href="#linear-gradient-3"/>
    <linearGradient id="linear-gradient-9" x1="436.09" y1="586.11" x2="488.11" y2="586.11" xlink:href="#linear-gradient-3"/>
    <linearGradient id="linear-gradient-10" x1="510.44" y1="586.11" x2="552.78" y2="586.11" xlink:href="#linear-gradient-3"/>
    <linearGradient id="linear-gradient-11" x1="169.04" y1="293.96" x2="444.65" y2="293.96" gradientUnits="userSpaceOnUse">
      <stop offset="0" stop-color="#e65226"/>
      <stop offset="1" stop-color="#5c62ac"/>
    </linearGradient>
  </defs>
  <rect class="cls-5" width="611" height="793"/>
  <g>
    <path class="cls-3" d="m479.85,379.41v-171.66c0-9.38-5-18.04-13.12-22.73l-148.66-85.83c-8.12-4.69-18.13-4.69-26.25,0l-148.66,85.83c-8.12,4.69-13.12,13.35-13.12,22.73v171.66c0,9.38,5,18.04,13.12,22.73l148.66,85.83c8.12,4.69,18.13,4.69,26.25,0l148.66-85.83c8.12-4.69,13.12-13.35,13.12-22.73Z"/>
    <path class="cls-4" d="m480.96,379.41v-171.66c0-9.38-5-18.04-13.12-22.73l-148.66-85.83c-8.12-4.69-18.13-4.69-26.25,0l-148.66,85.83c-8.12,4.69-13.12,13.35-13.12,22.73v171.66c0,9.38,5,18.04,13.12,22.73l148.66,85.83c8.12,4.69,18.13,4.69,26.25,0l148.66-85.83c8.12-4.69,13.12-13.35,13.12-22.73Z"/>
    <g>
      <path class="cls-13" d="m181.69,383.05l116.79,67.11c6.48,3.72,14.44,3.7,20.9-.04l115.55-67.03c13.9-8.06,13.88-28.15-.04-36.18l-116.25-67.12c-6.47-3.73-14.44-3.73-20.9,0l-116.1,67.03c-13.95,8.05-13.93,28.2.04,36.23Z"/>
      <line class="cls-8" x1="188.04" y1="224.68" x2="428.52" y2="363.98"/>
      <path class="cls-1" d="m179.47,241.03l116.79,67.11c6.48,3.72,14.44,3.7,20.9-.04l115.55-67.03c13.9-8.06,13.88-28.15-.04-36.18l-116.25-67.12c-6.47-3.73-14.44-3.73-20.9,0l-116.1,67.03c-13.95,8.05-13.93,28.2.04,36.23Z"/>
    </g>
  </g>
  <g>
    <path class="cls-12" d="m62.26,583.68c-2.57-2.58-3.97-6.06-3.97-9.68,0-7.66,6.2-13.86,13.86-13.86h25.35c.9,0,1.67.77,1.67,1.6,0,.91-.77,1.67-1.67,1.67h-25.35c-5.43,0-10.59,4.53-10.59,10.59s4.88,10.24,10.59,10.58h13.09c5.71.14,8.91,3.14,9.89,4.18,2.57,2.58,3.97,6.06,3.97,9.68,0,7.66-6.2,13.86-13.86,13.86h-25.35c-.91,0-1.67-.77-1.67-1.6,0-.91.77-1.67,1.67-1.67h25.35c5.43,0,10.59-4.53,10.59-10.59s-4.88-10.24-10.59-10.58h-13.09c-5.71-.14-8.91-3.14-9.89-4.18Z"/>
    <path class="cls-14" d="m165.15,610.49c0,.91-.77,1.67-1.67,1.67h-15.95c-14.35,0-26.04-11.7-26.04-26.04s11.7-26.12,26.04-26.12h15.95c.91,0,1.67.77,1.67,1.67s-.77,1.67-1.67,1.67h-15.95c-11.98,0-21.87,9.33-22.7,21.17h29.6c.91,0,1.67.77,1.67,1.67s-.77,1.67-1.67,1.67h-29.6c.91,11.7,10.73,20.96,22.7,21.03.07,0,15.95-.07,15.95-.07.91,0,1.67.77,1.67,1.67Z"/>
    <path class="cls-9" d="m239.5,610.56c0,.91-.77,1.6-1.67,1.6s-1.6-.7-1.6-1.6l-.07-24.51c0-12.46-10.17-22.63-22.63-22.63s-22.7,10.17-22.7,22.63l-.07,24.45c0,.91-.7,1.67-1.6,1.67-.98,0-1.67-.77-1.67-1.67l.07-24.45c0-14.27,11.63-25.98,25.98-25.98s25.98,11.7,25.98,25.98v24.51Z"/>
    <path class="cls-2" d="m313.85,586.12c0,.9-.77,1.6-1.67,1.6s-1.6-.7-1.6-1.6l-.07-.07c0-11.91-9.33-21.73-21.03-22.56v47.08c0,.91-.7,1.6-1.6,1.6s-1.67-.7-1.67-1.6v-47.08c-11.77.91-21.03,10.65-21.03,22.56h-.07c0,.91-.7,1.67-1.6,1.67-.98,0-1.67-.77-1.67-1.67h.07c0-14.2,11.49-25.83,25.7-25.98,14.69.21,26.25,11.91,26.25,25.98v.07Z"/>
    <path class="cls-10" d="m336.17,610.56v-48.82c0-.91.77-1.67,1.67-1.67s1.6.77,1.6,1.67v48.82c0,.91-.7,1.6-1.6,1.6s-1.67-.7-1.67-1.6Z"/>
    <path class="cls-15" d="m413.77,610.56c0,.91-.77,1.6-1.67,1.6s-1.6-.7-1.6-1.6l-.07-24.51c0-12.46-10.17-22.63-22.63-22.63s-22.7,10.17-22.7,22.63l-.07,24.45c0,.91-.7,1.67-1.6,1.67-.98,0-1.67-.77-1.67-1.67l.07-24.45c0-14.27,11.63-25.98,25.98-25.98s25.98,11.7,25.98,25.98v24.51Z"/>
    <path class="cls-11" d="m488.11,610.56c0,.91-.77,1.6-1.67,1.6s-1.6-.7-1.6-1.6l-.07-22.77h-45.34l-.07,22.7c0,.91-.7,1.67-1.6,1.67-.98,0-1.67-.77-1.67-1.67l.07-24.45c0-14.27,11.63-25.98,25.98-25.98s25.98,11.7,25.98,25.98v24.51Zm-3.41-26.04c-.83-11.77-10.65-21.1-22.56-21.1s-21.87,9.33-22.63,21.1h45.19Z"/>
    <path class="cls-6" d="m536.27,612.16c-14.2,0-25.77-11.56-25.77-25.77l-.07-24.72c0-.91.7-1.6,1.6-1.6s1.67.7,1.67,1.6l.07,24.72c0,12.4,10.1,22.49,22.49,22.49h14.83c.91,0,1.67.77,1.67,1.67,0,.84-.77,1.6-1.67,1.6h-14.83Z"/>
  </g>
  <line class="cls-7" x1="188.04" y1="222.95" x2="425.65" y2="364.97"/>
</svg>